#!OML:ASF H:\Pregnant\Project 1\Capture day 1\Session 1\femalepreg.ASF
:FULLY-SPECIFIED
:DEGREES
737
root -5.98355 14.9148 41.9606 -159.251 0.0348773 181.018
lowerback -15.8186 -1.01906 -11.9175
upperback -3.44501 1.55997 -3.01846
thorax 4.99585 0.959195 3.82783
lowerneck -14.8298 4.96108 3.6183
upperneck 40.4575 -0.621169 4.49743
head 17.4527 -0.66783 0.790718
rclavicle -1.31198e-014 6.36111e-015
rhumerus -36.2259 3.37977 -82.9674
rradius 42.085
rwrist -4.72494
rhand -18.9121 -13.6524
rfingers 7.12502
rthumb 7.38997 -43.5033
lclavicle -1.31198e-014 6.36111e-015
lhumerus -33.8439 -8.14605 74.3417
lradius 31.2989
lwrist 40.156
lhand -32.1255 -4.00518
lfingers 7.12502
lthumb -5.36993 25.9068
rfemur -66.8586 7.55841 23.0839
rtibia 72.5491
rfoot -19.308 -9.7162
rtoes -11.6636
lfemur -38.9582 -11.1323 -24.2365
ltibia 32.7757
lfoot -12.105 0.499369
ltoes 5.91272
738
root -5.97946 14.92 41.9505 -159.218 -0.0535668 181.125
lowerback -15.7672 -1.0133 -11.8859
upperback -3.42843 1.54957 -3.00587
thorax 4.98748 0.951984 3.82088
lowerneck -14.8535 4.92167 3.6134
upperneck 40.4206 -0.680946 4.52633
head 17.4394 -0.684835 0.794413
rclavicle 4.53229e-014 -6.36111e-014
rhumerus -36.2577 3.36943 -83.001
rradius 42.0132
rwrist -4.69436
rhand -18.8682 -13.7235
rfingers 7.12502
rthumb 7.43238 -43.5729
lclavicle 4.53229e-014 -6.36111e-014
lhumerus -33.7876 -8.45173 74.5545
lradius 31.6969
lwrist 40.1074
lhand -31.9852 -4.16352
lfingers 7.12502
lthumb -5.2344 25.7518
rfemur -66.8308 7.92053 22.6404
rtibia 68.6239
rfoot -19.5487 -10.053
rtoes -11.8423
lfemur -38.9714 -11.1317 -24.0954
ltibia 32.7845
lfoot -12.1253 0.487408
ltoes 5.86152
739
root -5.97497 14.932 41.9415 -159.17 -0.145134 181.231
lowerback -15.7083 -1.00437 -11.854
upperback -3.42169 1.54417 -3.00472
thorax 4.96407 0.949394 3.8022
lowerneck -14.8636 4.88097 3.62702
upperneck 40.373 -0.74826 4.5592
head 17.4174 -0.701496 0.794987
rclavicle -1.64991e-014 7.31528e-014
rhumerus -36.3131 3.35136 -83.0508
rradius 41.9306
rwrist -4.65937
rhand -18.7593 -13.8366
rfingers 7.12502
rthumb 7.53746 -43.6823
lclavicle -1.64991e-014 7.31528e-014
lhumerus -33.7544 -8.77777 74.7594
lradius 32.1568
lwrist 40.1291
lhand -31.8547 -4.35436
lfingers 7.12502
lthumb -5.10846 25.5641
rfemur -66.7814 8.34904 22.117
rtibia 64.6382
rfoot -19.7627 -10.4529
rtoes -12.0575
lfemur -38.9095 -11.1415 -23.9419
ltibia 32.6181
lfoot -12.066 0.47384
ltoes 5.76306
740
root -5.96991 14.948 41.934 -159.104 -0.242846 181.33
lowerback -15.6473 -1.00124 -11.837
upperback -3.42424 1.53426 -3.00415
thorax 4.92986 0.946105 3.79024
lowerneck -14.8634 4.84165 3.64982
upperneck 40.3203 -0.809625 4.58082
head 17.3897 -0.715784 0.789801
rclavicle -3.45885e-014 -3.02153e-014
rhumerus -36.3874 3.34973 -83.1062
rradius 41.8395
rwrist -4.62156
rhand -18.5821 -13.9738
rfingers 7.12502
rthumb 7.70854 -43.8133
lclavicle -3.45885e-014 -3.02153e-014
lhumerus -33.746 -9.10179 74.9667
lradius 32.6713
lwrist 40.2188
lhand -31.7158 -4.56948
lfingers 7.12502
lthumb -4.97433 25.3521
rfemur -66.7527 8.83929 21.4958
rtibia 60.6496
rfoot -19.9341 -10.9422
rtoes -12.3664
lfemur -38.7985 -11.1467 -23.7901
ltibia 32.3084
lfoot -11.9383 0.438862
ltoes 5.60764
741
root -5.96419 14.9677 41.9282 -159.019 -0.348384 181.419
lowerback -15.582 -0.0810722 -12.0959
upperback -3.38659 1.30151 -3.04551
thorax 4.83596 0.201233 3.78776
lowerneck -14.8462 4.80329 3.67489
upperneck 40.2573 -0.86655 4.6014
head 17.3518 -0.728152 0.784322
rclavicle 1.78906e-015 5.88403e-014
rhumerus -36.4785 3.36167 -83.1648
rradius 41.7375
rwrist -4.57661
rhand -18.3585 -14.1056
rfingers 7.12502
rthumb 7.92431 -43.9371
lclavicle 1.78906e-015 5.88403e-014
lhumerus -33.7563 -9.4112 75.1732
lradius 33.2208
lwrist 40.3626
lhand -31.6022 -4.67688
lfingers 7.12502
lthumb -4.86464 25.2473
rfemur -66.768 9.40129 20.754
rtibia 56.7087
rfoot -20.0757 -11.5592
rtoes -12.7967
lfemur -38.6495 -11.1645 -23.6345
ltibia 31.8751
lfoot -11.7481 0.395468
ltoes 5.45974
742
root -5.95804 14.9916 41.924 -158.925 -0.458901 181.502
lowerback -15.5131 -0.0935975 -12.1203
upperback -3.40494 1.27665 -3.03105
thorax 4.78109 0.192976 3.81145
lowerneck -14.8171 4.76771 3.68218
upperneck 40.1887 -0.908605 4.61857
head 17.3068 -0.737662 0.783126
rclavicle -1.76918e-014 4.13472e-014
rhumerus -36.5839 3.40999 -83.2151
rradius 41.628
rwrist -4.52597
rhand -18.1347 -14.1894
rfingers 7.12502
rthumb 8.14037 -44.0126
lclavicle -1.76918e-014 4.13472e-014
lhumerus -33.7944 -9.69079 75.3928
lradius 33.8125
lwrist 40.5614
lhand -31.4974 -4.73891
lfingers 7.12502
lthumb -4.76348 25.1875
rfemur -66.837 10.0375 19.8791
rtibia 52.8742
rfoot -20.1795 -12.3488
rtoes -13.3676
lfemur -38.4892 -11.2024 -23.4692
ltibia 31.3497
lfoot -11.4885 0.331535
ltoes 5.53378
743
root -5.95149 15.0183 41.9214 -158.823 -0.575737 181.574
lowerback -15.444 -0.113927 -12.1727
upperback -3.42593 1.24511 -3.00486
thorax 4.72309 0.181463 3.862
lowerneck -14.7798 4.73246 3.67682
upperneck 40.1158 -0.939299 4.62721
head 17.2565 -0.745396 0.782401
rclavicle -4.77083e-015 9.85972e-014
rhumerus -36.7005 3.48424 -83.253
rradius 41.5137
rwrist -4.46972
rhand -17.9506 -14.2139
rfingers 7.12502
rthumb 8.31804 -44.0301
lclavicle -4.77083e-015 9.85972e-014
lhumerus -33.8419 -9.93512 75.6215
lradius 34.4213
lwrist 40.7979
lhand -31.3728 -4.81429
lfingers 7.12502
lthumb -4.6431 25.1148
rfemur -66.9956 10.7446 18.8502
rtibia 49.2137
rfoot -20.2314 -13.3421
rtoes -14.02
lfemur -38.3132 -11.2547 -23.3041
ltibia 30.746
lfoot -11.1748 0.25297
ltoes 5.72018
744
root -5.94468 15.0469 41.9201 -158.72 -0.696694 181.637
lowerback -15.3843 -0.137768 -12.241
upperback -3.43971 1.21414 -2.97309
thorax 4.67745 0.169513 3.9276
lowerneck -14.7403 4.69475 3.66155
upperneck 40.0355 -0.964146 4.63066
head 17.2011 -0.752132 0.782325
rclavicle 1.43125e-014 -3.18055e-015
rhumerus -36.8161 3.56878 -83.2828
rradius 41.3923
rwrist -4.40351
rhand -17.8114 -14.1884
rfingers 7.12502
rthumb 8.45235 -43.9992
lclavicle 1.43125e-014 -3.18055e-015
lhumerus -33.8852 -10.1597 75.8515
lradius 35.0469
lwrist 41.0755
lhand -31.2152 -4.89837
lfingers 7.12502
lthumb -4.4909 25.034
rfemur -67.2644 11.5192 17.6577
rtibia 45.7957
rfoot -20.2493 -14.5472
rtoes -14.5771
lfemur -38.1226 -11.3156 -23.1403
ltibia 30.0824
lfoot -10.817 0.15625
ltoes 6.0311
745
root -5.93771 15.0767 41.9202 -158.615 -0.82412 181.688
lowerback -15.3285 -0.164966 -12.3232
upperback -3.452 1.18148 -2.9389
thorax 4.63534 0.156375 4.00325
lowerneck -14.6962 4.65836 3.63671
upperneck 39.9554 -0.982431 4.63268
head 17.1443 -0.757863 0.784516
rclavicle 3.18055e-015 -5.24792e-014
rhumerus -36.9326 3.66068 -83.3066
rradius 41.2559
rwrist -4.32408
rhand -17.7466 -14.0823
rfingers 7.12502
rthumb 8.5149 -43.8906
lclavicle 3.18055e-015 -5.24792e-014
lhumerus -33.9248 -10.3663 76.0807
lradius 35.6722
lwrist 41.3745
lhand -31.0509 -4.98318
lfingers 7.12502
lthumb -4.33225 24.9525
rfemur -67.6759 12.3371 16.3039
rtibia 42.689
rfoot -20.2379 -15.966
rtoes -14.9965
lfemur -37.9133 -11.3893 -22.9816
ltibia 29.3639
lfoot -10.4232 0.0553877
ltoes 6.37574
746
root -5.93067 15.1061 41.9215 -158.51 -0.959128 181.729
lowerback -15.2762 -0.189647 -12.4061
upperback -3.4636 1.15258 -2.91152
thorax 4.59555 0.144714 4.07265
lowerneck -14.6407 4.62227 3.61987
upperneck 39.876 -1.00186 4.63015
head 17.0854 -0.763988 0.782855
rclavicle 1.39149e-015 -3.18055e-014
rhumerus -37.0546 3.73734 -83.3311
rradius 41.1031
rwrist -4.22481
rhand -17.6801 -13.9795
rfingers 7.12502
rthumb 8.5791 -43.7852
lclavicle 1.39149e-015 -3.18055e-014
lhumerus -33.955 -10.5767 76.3006
lradius 36.2881
lwrist 41.6793
lhand -30.8766 -5.05636
lfingers 7.12502
lthumb -4.16399 24.8827
rfemur -68.2538 13.1751 14.8014
rtibia 39.9504
rfoot -20.2805 -17.5537
rtoes -14.9552
lfemur -37.6747 -11.4577 -22.8364
ltibia 28.5975
lfoot -10.0112 -0.0578575
ltoes 6.62646
747
root -5.92371 15.1347 41.924 -158.406 -1.0993 181.76
lowerback -15.2275 -0.211281 -12.489
upperback -3.4739 1.12825 -2.89031
thorax 4.55857 0.134938 4.13642
lowerneck -14.5667 4.58707 3.60368
upperneck 39.7922 -1.02108 4.63115
head 17.0196 -0.770066 0.782445
rclavicle 1.39149e-014 -1.90833e-014
rhumerus -37.1752 3.79761 -83.3534
rradius 40.9269
rwrist -4.10632
rhand -17.6157 -13.8809
rfingers 7.12502
rthumb 8.64125 -43.6841
lclavicle 1.39149e-014 -1.90833e-014
lhumerus -33.9751 -10.7885 76.5135
lradius 36.8853
lwrist 41.9705
lhand -30.7022 -5.12331
lfingers 7.12502
lthumb -3.99553 24.819
rfemur -69.0045 13.9992 13.1852
rtibia 37.6159
rfoot -20.3663 -19.2774
rtoes -14.609
lfemur -37.4014 -11.5256 -22.7048
ltibia 27.7851
lfoot -9.58842 -0.175966
ltoes 6.7682
748
root -5.91695 15.1623 41.9278 -158.304 -1.2444 181.782
lowerback -15.1817 -0.234531 -12.5722
upperback -3.48004 1.10309 -2.86783
thorax 4.5279 0.124515 4.20157
lowerneck -14.4882 4.55532 3.57958
upperneck 39.7095 -1.03074 4.6291
head 16.9531 -0.773887 0.783839
rclavicle 1.13307e-014 -3.02153e-014
rhumerus -37.2788 3.8536 -83.3672
rradius 40.7189
rwrist -3.96126
rhand -17.5519 -13.786
rfingers 7.12502
rthumb 8.70282 -43.5866
lclavicle 1.13307e-014 -3.02153e-014
lhumerus -33.9775 -10.9802 76.7234
lradius 37.4553
lwrist 42.2274
lhand -30.5183 -5.18039
lfingers 7.12502
lthumb -3.81796 24.7652
rfemur -69.9189 14.7699 11.5087
rtibia 35.6922
rfoot -20.4972 -21.0696
rtoes -14.0044
lfemur -37.099 -11.5909 -22.5857
ltibia 26.9312
lfoot -9.14953 -0.305038
ltoes 6.82587
